<svg height="90px" width="100%" preserveAspectRatio="xMinYMid meet" xmlns="http://www.w3.org/2000/svg" xml:space="preserve" id="Layer_1" x="0" y="0" style="enable-background:new 0 0 45 48" version="1.1"  viewBox="0 0 45 48"><style>.st1{fill:#fff}.st4,.st6{stroke:#000;stroke-width:.5;stroke-miterlimit:10}.st4{fill:none;stroke-linecap:round;stroke-linejoin:round}.st6{fill:#fff}.st9{fill:#f59715}.st10{fill:#f8d08f}.st11{fill:#003b95}.st13{fill:#191e3b}</style><path d="M37.75 42.65H6.61" class="st4"/><path d="M20.42 11.06h9.16V31.7h-9.16z" class="st10"/><path d="M16.33 11.06h9.24V31.7h-9.24z" class="st6"/><path d="M19.44 15.33H32.1v27.32H19.44z" class="st10"/><path d="M13.89 15.33h12.66v27.32H13.89z" class="st1"/><path d="M14.91 17.97h1.99v3.56h-1.99zM19.18 17.97h1.99v3.56h-1.99zM23.45 17.97h1.99v3.56h-1.99z" class="st9"/><path d="M27.45 15.35h2.54M13.88 36.58c0 2.78 0 6.07.01 6.07H32.1v-2.77M32.1 20.83v-5.48h-2.54v-4.29l-13.23.02v4.27l-2.45-.02s0 5.52-.01 9.55M16.19 15.35h5.98" class="st4"/><path d="M38.89 31.1h-9.34c-.86 0-1.55-.69-1.55-1.55V20.2c0-.86.69-1.55 1.55-1.55h9.34c.86 0 1.55.69 1.55 1.55v9.34c0 .86-.7 1.56-1.55 1.56z" class="st6"/><path d="M34.3 29.04h-2.2c-.29 0-.59 0-.87-.09-.59-.19-.97-.59-1.07-1.21-.05-.32-.06-.65-.06-.97-.01-1.33 0-2.67 0-4 0-.31 0-.63.08-.94.14-.56.66-1.05 1.23-1.12.32-.04.64-.05.97-.06 1.33-.01 2.67 0 4 0 .31 0 .62 0 .93.08.56.14 1.05.65 1.12 1.23.04.32.05.64.06.97.01 1.34 0 2.67 0 4.01 0 .33.01.66-.09.97-.19.59-.59.97-1.21 1.08-.32.05-.65.05-.97.06-.64 0-1.28-.01-1.92-.01zm.54-4.25c.27-.2.41-.46.42-.78.01-.33-.1-.6-.37-.81-.25-.19-.53-.25-.83-.25h-.93c-.25 0-.43.18-.43.43v3.48h1.36c.11 0 .22-.01.33-.03.28-.05.53-.15.73-.36.25-.26.33-.59.28-.94a.9.9 0 0 0-.51-.71c-.02 0-.03-.02-.05-.03zm1.53 2.11c.26 0 .47-.21.47-.47s-.22-.47-.48-.47a.47.47 0 0 0-.47.47c.01.26.22.47.48.47z" class="st11"/><path d="M34.84 24.79c.02.02.04.03.05.03.29.15.46.39.51.71.05.35-.02.68-.28.94-.2.21-.45.31-.73.36-.11.02-.22.03-.33.03H32.7v-3.48c0-.25.18-.43.43-.43h.93c.3 0 .59.06.83.25.27.2.38.48.37.81-.01.32-.15.58-.42.78zm-1.38.96v.38c0 .04.01.07.06.07h.59c.18 0 .35-.06.45-.22.08-.14.09-.29.06-.44a.462.462 0 0 0-.46-.39h-.46c-.14 0-.22.07-.23.22-.01.12-.01.25-.01.38zm0-1.22h.56c.27 0 .43-.13.46-.4.03-.23-.05-.49-.36-.53-.15-.02-.31-.01-.47 0-.12.01-.19.09-.19.21-.01.2 0 .41-.01.61.01.04.01.07.01.11zM36.37 26.9c-.26 0-.48-.21-.48-.47s.21-.47.47-.47.48.21.48.47c.01.26-.21.47-.47.47z" class="st1"/><path d="M33.46 25.75v-.39c.01-.14.09-.22.23-.22h.46c.24.01.42.15.46.39.03.15.02.3-.06.44-.1.17-.26.22-.45.22h-.59c-.05 0-.06-.02-.06-.07.01-.12.01-.25.01-.37zM33.46 24.53v-.1c0-.2 0-.41.01-.61 0-.12.07-.2.19-.21.16-.01.31-.02.47 0 .31.04.39.29.36.53-.04.26-.2.4-.46.4-.19-.01-.38-.01-.57-.01z" class="st11"/><path d="M15.85 34.8H7.92c-.73 0-1.32-.59-1.32-1.32v-7.92c0-.73.59-1.32 1.32-1.32h7.92c.73 0 1.32.59 1.32 1.32v7.92c0 .73-.59 1.32-1.31 1.32z" class="st6"/><path d="M14.17 33.44H9.72c-.86 0-1.55-.7-1.55-1.56v-4.45c0-.86.7-1.55 1.55-1.55h4.45c.86 0 1.55.7 1.55 1.55v4.45c0 .86-.69 1.56-1.55 1.56z" style="fill:#fddb32"/><path d="M10.47 31.97v-.73c0-.06-.05-.11-.11-.11h-.73c-.06 0-.11.05-.11.11v.73c0 .06.05.11.11.11h.73c.07-.01.11-.05.11-.11zM14.36 31.34v-3.61a.48.48 0 0 0-.48-.48h-3.61c-.07 0-.12.03-.16.07l-.72.73c-.05.05-.02.13.06.13h3.27l-2.03 2.03c-.04.04-.05.07-.05.13v.53c0 .06.04.11.11.11h.53c.06 0 .1-.02.13-.05l2.03-2.03v3.27c0 .08.08.12.13.06l.73-.72c.03-.06.06-.1.06-.17z" class="st13"/><path d="M28.22 37.37h-3.65c-.33 0-.61-.27-.61-.61v-3.65c0-.33.27-.61.61-.61h3.65c.33 0 .61.27.61.61v3.65c0 .34-.27.61-.61.61z" class="st6"/><path d="m25.198 34.969 1.195-1.195 1.195 1.195-1.195 1.195z" class="st10"/></svg>