<svg height="90px" width="100%" preserveAspectRatio="xMinYMid meet" xmlns="http://www.w3.org/2000/svg" xml:space="preserve" id="Layer_1" x="0" y="0" style="enable-background:new 0 0 45 48" version="1.1" viewBox="0 0 45 48"><style>.st14,.st4,.st7{stroke-width:.5;stroke-linecap:round;stroke-linejoin:round;stroke-miterlimit:10}.st4,.st7{fill:none;stroke:#000}.st7{fill:#fff}.st14{fill:#d2e5b5;stroke:#028000}.st15{fill:#348019}.st16{fill:none;stroke:#fff;stroke-width:.5;stroke-linecap:round;stroke-linejoin:round;stroke-miterlimit:10}</style><path d="M13.91 23.61H5.25c-.83 0-1.5-.67-1.5-1.5v-5c0-.83.67-1.5 1.5-1.5h8.66c.83 0 1.5.67 1.5 1.5v5c0 .83-.67 1.5-1.5 1.5z" class="st7"/><path d="M8.86 21.17c-.17-.07-.3-.17-.39-.31s-.15-.28-.18-.46v-.03h.49l.01.03c.03.15.1.26.21.34.11.08.26.12.46.12.13 0 .25-.02.34-.05.09-.03.17-.08.22-.15.05-.06.08-.14.08-.23 0-.1-.03-.19-.1-.25-.06-.06-.18-.12-.35-.16l-.46-.11c-.18-.04-.34-.1-.46-.18a.7.7 0 0 1-.36-.64c0-.17.05-.32.14-.45a.88.88 0 0 1 .38-.3c.16-.07.35-.11.56-.11.21 0 .4.04.56.11.16.08.28.18.37.31.09.13.14.28.15.44v.04h-.47v-.02a.489.489 0 0 0-.19-.34c-.11-.09-.25-.13-.43-.13-.12 0-.22.02-.31.05-.09.04-.15.09-.2.15-.04.08-.06.16-.06.24 0 .07.02.12.05.18.03.05.08.1.15.14.07.04.15.07.26.1l.46.11c.3.07.5.17.62.29.12.12.18.29.18.5 0 .17-.05.32-.15.45-.1.13-.23.23-.4.31-.17.07-.37.11-.58.11-.23.01-.43-.03-.6-.1z"/><path d="M9.22 17.82h.45v.64h-.45zm0 3.25h.45v.64h-.45zm-3.41.1c-.17-.07-.3-.17-.39-.31s-.15-.28-.18-.46v-.03h.49l.01.03c.03.15.1.26.21.34.11.08.26.12.46.12.13 0 .25-.02.34-.05.09-.03.17-.08.22-.15.05-.06.08-.14.08-.23 0-.1-.03-.19-.1-.25-.06-.06-.18-.12-.35-.16l-.46-.11c-.18-.04-.34-.1-.46-.18a.7.7 0 0 1-.36-.64c0-.17.05-.32.14-.45s.22-.23.38-.3c.16-.07.35-.11.56-.11.21 0 .4.04.56.11.16.08.28.18.37.31.09.13.14.28.15.44v.04h-.47v-.02a.489.489 0 0 0-.19-.34c-.11-.09-.25-.13-.43-.13-.12 0-.22.02-.31.05-.09.04-.15.09-.2.15-.04.08-.06.16-.06.24 0 .07.02.12.05.18.03.05.08.1.15.14.07.04.15.07.26.1l.46.11c.3.07.5.17.62.29.12.12.18.29.18.5 0 .17-.05.32-.15.45-.1.13-.23.23-.4.31-.17.07-.37.11-.58.11-.23.01-.43-.03-.6-.1z"/><path d="M6.17 17.82h.45v.64h-.45zm0 3.25h.45v.64h-.45zm5.74.1c-.17-.07-.3-.17-.39-.31s-.15-.28-.18-.46v-.03h.49l.01.03c.03.15.1.26.21.34.11.08.26.12.46.12.13 0 .25-.02.34-.05.09-.03.17-.08.22-.15.05-.06.08-.14.08-.23 0-.1-.03-.19-.1-.25-.06-.06-.18-.12-.35-.16l-.46-.11c-.18-.04-.34-.1-.46-.18a.7.7 0 0 1-.36-.64c0-.17.05-.32.14-.45s.22-.23.38-.3c.16-.07.35-.11.56-.11.21 0 .4.04.56.11.16.08.28.18.37.31.09.13.14.28.15.44v.04h-.47v-.02a.489.489 0 0 0-.19-.34c-.11-.09-.25-.13-.43-.13-.12 0-.22.02-.31.05-.09.04-.15.09-.2.15a.35.35 0 0 0-.07.23c0 .07.02.12.05.18.03.05.08.1.15.14.07.04.15.07.26.1l.46.11c.3.07.5.17.62.29.12.12.18.29.18.5 0 .17-.05.32-.15.45-.1.13-.23.23-.4.31-.17.07-.37.11-.58.11-.23.02-.42-.02-.59-.09z"/><path d="M12.26 17.82h.45v.64h-.45zm0 3.25h.45v.64h-.45z"/><path d="M35.79 23.48h-16.9c-.83 0-1.5-.67-1.5-1.5V11.33c0-.83.67-1.5 1.5-1.5h16.9c.83 0 1.5.67 1.5 1.5v10.65c0 .83-.67 1.5-1.5 1.5z" class="st14"/><path d="M26.05 19.95c-.38-.17-.68-.4-.9-.7-.22-.3-.35-.65-.4-1.04l-.01-.06h1.11l.01.06c.07.33.23.59.48.78.25.19.6.28 1.06.28.3 0 .56-.04.77-.12s.38-.19.49-.34c.12-.15.17-.32.17-.52v-.01c0-.24-.07-.43-.22-.58-.15-.14-.41-.26-.79-.36l-1.06-.26c-.42-.1-.77-.24-1.04-.4-.28-.16-.48-.37-.62-.6-.14-.24-.2-.52-.2-.84v-.01c0-.38.1-.72.31-1.02.21-.29.5-.53.86-.69.37-.17.79-.25 1.27-.25.49 0 .91.09 1.27.26s.64.41.85.7c.21.3.32.63.35 1l.01.08h-1.06l-.01-.04c-.04-.32-.18-.58-.43-.78-.24-.2-.57-.29-.98-.29-.27 0-.5.04-.7.12s-.35.2-.45.34c-.1.15-.16.32-.16.52v.01c0 .15.04.28.11.41.07.12.18.23.34.32.15.09.35.16.6.22l1.06.26c.67.16 1.15.39 1.42.67s.41.66.41 1.14v.01c0 .39-.11.73-.34 1.03-.22.3-.53.53-.92.7-.39.17-.83.25-1.33.25-.5-.01-.96-.09-1.33-.25z" class="st15"/><path d="M26.85 12.32h1.02v1.45h-1.02zm0 7.4h1.02v1.45h-1.02z" class="st15"/><circle cx="36.51" cy="10.44" r="4.74" class="st15"/><path d="m34.18 10.72 1.53 1.54 3.31-3.3" class="st16"/><path d="M13.91 23.61H5.25c-.83 0-1.5-.67-1.5-1.5v-5c0-.83.67-1.5 1.5-1.5h8.66c.83 0 1.5.67 1.5 1.5v5c0 .83-.67 1.5-1.5 1.5z" class="st7"/><path d="M8.86 21.17c-.17-.07-.3-.17-.39-.31s-.15-.28-.18-.46v-.03h.49l.01.03c.03.15.1.26.21.34.11.08.26.12.46.12.13 0 .25-.02.34-.05.09-.03.17-.08.22-.15.05-.06.08-.14.08-.23 0-.1-.03-.19-.1-.25-.06-.06-.18-.12-.35-.16l-.46-.11c-.18-.04-.34-.1-.46-.18a.7.7 0 0 1-.36-.64c0-.17.05-.32.14-.45a.88.88 0 0 1 .38-.3c.16-.07.35-.11.56-.11.21 0 .4.04.56.11.16.08.28.18.37.31.09.13.14.28.15.44v.04h-.47v-.02a.489.489 0 0 0-.19-.34c-.11-.09-.25-.13-.43-.13-.12 0-.22.02-.31.05-.09.04-.15.09-.2.15-.04.08-.06.16-.06.24 0 .07.02.12.05.18.03.05.08.1.15.14.07.04.15.07.26.1l.46.11c.3.07.5.17.62.29.12.12.18.29.18.5 0 .17-.05.32-.15.45-.1.13-.23.23-.4.31-.17.07-.37.11-.58.11-.23.01-.43-.03-.6-.1z"/><path d="M9.22 17.82h.45v.64h-.45zm0 3.25h.45v.64h-.45zm-3.41.1c-.17-.07-.3-.17-.39-.31s-.15-.28-.18-.46v-.03h.49l.01.03c.03.15.1.26.21.34.11.08.26.12.46.12.13 0 .25-.02.34-.05.09-.03.17-.08.22-.15.05-.06.08-.14.08-.23 0-.1-.03-.19-.1-.25-.06-.06-.18-.12-.35-.16l-.46-.11c-.18-.04-.34-.1-.46-.18a.7.7 0 0 1-.36-.64c0-.17.05-.32.14-.45s.22-.23.38-.3c.16-.07.35-.11.56-.11.21 0 .4.04.56.11.16.08.28.18.37.31.09.13.14.28.15.44v.04h-.47v-.02a.489.489 0 0 0-.19-.34c-.11-.09-.25-.13-.43-.13-.12 0-.22.02-.31.05-.09.04-.15.09-.2.15-.04.08-.06.16-.06.24 0 .07.02.12.05.18.03.05.08.1.15.14.07.04.15.07.26.1l.46.11c.3.07.5.17.62.29.12.12.18.29.18.5 0 .17-.05.32-.15.45-.1.13-.23.23-.4.31-.17.07-.37.11-.58.11-.23.01-.43-.03-.6-.1z"/><path d="M6.17 17.82h.45v.64h-.45zm0 3.25h.45v.64h-.45zm5.74.1c-.17-.07-.3-.17-.39-.31s-.15-.28-.18-.46v-.03h.49l.01.03c.03.15.1.26.21.34.11.08.26.12.46.12.13 0 .25-.02.34-.05.09-.03.17-.08.22-.15.05-.06.08-.14.08-.23 0-.1-.03-.19-.1-.25-.06-.06-.18-.12-.35-.16l-.46-.11c-.18-.04-.34-.1-.46-.18a.7.7 0 0 1-.36-.64c0-.17.05-.32.14-.45s.22-.23.38-.3c.16-.07.35-.11.56-.11.21 0 .4.04.56.11.16.08.28.18.37.31.09.13.14.28.15.44v.04h-.47v-.02a.489.489 0 0 0-.19-.34c-.11-.09-.25-.13-.43-.13-.12 0-.22.02-.31.05-.09.04-.15.09-.2.15a.35.35 0 0 0-.07.23c0 .07.02.12.05.18.03.05.08.1.15.14.07.04.15.07.26.1l.46.11c.3.07.5.17.62.29.12.12.18.29.18.5 0 .17-.05.32-.15.45-.1.13-.23.23-.4.31-.17.07-.37.11-.58.11-.23.02-.42-.02-.59-.09z"/><path d="M12.26 17.82h.45v.64h-.45zm0 3.25h.45v.64h-.45z"/><path d="M35.79 23.48h-16.9c-.83 0-1.5-.67-1.5-1.5V11.33c0-.83.67-1.5 1.5-1.5h16.9c.83 0 1.5.67 1.5 1.5v10.65c0 .83-.67 1.5-1.5 1.5z" class="st14"/><path d="M26.05 19.95c-.38-.17-.68-.4-.9-.7-.22-.3-.35-.65-.4-1.04l-.01-.06h1.11l.01.06c.07.33.23.59.48.78.25.19.6.28 1.06.28.3 0 .56-.04.77-.12s.38-.19.49-.34c.12-.15.17-.32.17-.52v-.01c0-.24-.07-.43-.22-.58-.15-.14-.41-.26-.79-.36l-1.06-.26c-.42-.1-.77-.24-1.04-.4-.28-.16-.48-.37-.62-.6-.14-.24-.2-.52-.2-.84v-.01c0-.38.1-.72.31-1.02.21-.29.5-.53.86-.69.37-.17.79-.25 1.27-.25.49 0 .91.09 1.27.26s.64.41.85.7c.21.3.32.63.35 1l.01.08h-1.06l-.01-.04c-.04-.32-.18-.58-.43-.78-.24-.2-.57-.29-.98-.29-.27 0-.5.04-.7.12s-.35.2-.45.34c-.1.15-.16.32-.16.52v.01c0 .15.04.28.11.41.07.12.18.23.34.32.15.09.35.16.6.22l1.06.26c.67.16 1.15.39 1.42.67s.41.66.41 1.14v.01c0 .39-.11.73-.34 1.03-.22.3-.53.53-.92.7-.39.17-.83.25-1.33.25-.5-.01-.96-.09-1.33-.25z" class="st15"/><path d="M26.85 12.32h1.02v1.45h-1.02zm0 7.4h1.02v1.45h-1.02z" class="st15"/><circle cx="36.51" cy="10.44" r="4.74" class="st15"/><path d="m34.18 10.72 1.53 1.54 3.31-3.3" class="st16"/><path d="M7.52 32.75v-4.37a55.52 55.52 0 0 1 11.02-1.16c4.6-.03 8.57.52 11.7 1.16v4.43M4.72 39.02h27.71v3.73H4.72z" style="fill:#fff"/><path d="M31.31 38.34H5.84c-.62 0-1.12-.5-1.12-1.12v-1.96c0-.62.5-1.12 1.12-1.12h25.48c.62 0 1.12.5 1.12 1.12v1.96c-.01.62-.51 1.12-1.13 1.12z" style="fill:#ff8381"/><path d="M41.09 41.57h-7.2v-6.38h7.2v3.19zm-7.2-3.19h7.2m-4.54-1.34h1.64m-1.64 3.03h1.64m-2.82-5.1v-.66c0-.14.11-.25.25-.25h3.52c.14 0 .25.11.25.25v.66" class="st7"/><path d="M37.37 32.64v1.35" class="st4"/><path d="M39.38 32.64h-4.01l.3-4.01h3.4z" style="fill:#db3734;stroke:#000;stroke-width:.5;stroke-linecap:round;stroke-linejoin:round;stroke-miterlimit:10"/><path d="M43.12 42.75H4.72m2.8-9.93h22.73v-4.44c-3.13-.65-7.1-1.19-11.7-1.16-4.3.03-8.03.54-11.02 1.16v4.44" class="st4"/><path d="M18.07 32.81h-9.3v-1.35c0-.82.67-1.49 1.49-1.49h6.33c.82 0 1.49.67 1.49 1.49v1.35zm10.72 0h-9.3v-1.35c0-.82.67-1.49 1.49-1.49h6.33c.82 0 1.49.67 1.49 1.49v1.35z" style="fill:#ff8381;stroke:#000;stroke-width:.5;stroke-linecap:round;stroke-linejoin:round;stroke-miterlimit:10"/><path d="M32.46 42.9h-7.8l-2-3.88h9.8z" style="fill:#ffe0df"/><path d="M32.43 39.02v3.73H4.72v-3.73m26.59-.68H5.84c-.62 0-1.12-.5-1.12-1.12v-1.96c0-.62.5-1.12 1.12-1.12h25.48c.62 0 1.12.5 1.12 1.12v1.96c-.01.62-.51 1.12-1.13 1.12z" class="st4"/></svg>